<?xml version="1.0" encoding="UTF-8" standalone="no"?>
<!-- Creator: CorelDRAW 2017 -->

<svg
   xml:space="preserve"
   width="1200mm"
   height="300mm"
   version="1.1"
   style="shape-rendering:geometricPrecision; text-rendering:geometricPrecision; image-rendering:optimizeQuality; fill-rule:evenodd; clip-rule:evenodd"
   viewBox="0 0 120000 30000"
   id="svg264"
   sodipodi:docname="Jrouette.svg"
   inkscape:version="1.1.2 (b8e25be833, 2022-02-05)"
   xmlns:inkscape="http://www.inkscape.org/namespaces/inkscape"
   xmlns:sodipodi="http://sodipodi.sourceforge.net/DTD/sodipodi-0.dtd"
   xmlns:xlink="http://www.w3.org/1999/xlink"
   xmlns="http://www.w3.org/2000/svg"
   xmlns:svg="http://www.w3.org/2000/svg"><sodipodi:namedview
   id="namedview266"
   pagecolor="#ffffff"
   bordercolor="#666666"
   borderopacity="1.0"
   inkscape:pageshadow="2"
   inkscape:pageopacity="0.0"
   inkscape:pagecheckerboard="0"
   inkscape:document-units="mm"
   showgrid="false"
   inkscape:zoom="1.8873611"
   inkscape:cx="242.40194"
   inkscape:cy="168.48922"
   inkscape:window-width="1600"
   inkscape:window-height="837"
   inkscape:window-x="-8"
   inkscape:window-y="-8"
   inkscape:window-maximized="1"
   inkscape:current-layer="Plan_x0020_1" />
 <defs
   id="defs7">
  <style
   type="text/css"
   id="style2">
   <![CDATA[
    .str0 {stroke:black;stroke-width:10;stroke-miterlimit:22.9256}
    .str2 {stroke:#2B2A29;stroke-width:7.62;stroke-miterlimit:22.9256}
    .str1 {stroke:black;stroke-width:7.62;stroke-miterlimit:22.9256}
    .fil0 {fill:none}
    .fil1 {fill:none;fill-rule:nonzero}
   ]]>
  </style>
   <clipPath
   id="id0">
    <rect
   x="-24775.61"
   y="-1240.11"
   width="19285.16"
   height="34001.62"
   id="rect4" />
   </clipPath>
 </defs>
 <g
   id="Plan_x0020_1"
   inkscape:label="Plan 1">
  <metadata
   id="CorelCorpID_0Corel-Layer" />
  
  
  
  
  
  
  
  
  
  
  
  
  
  
  
  
  <g
   style="clip-path:url(#id0)"
   clip-path="url(#id0)"
   id="g43">
   <image
   id="Diapositive1.PNG"
   transform="matrix(-0.0068779 -0.999976 0.999976 -0.0068779 -24542.6 32761.5)"
   x="0"
   y="0"
   width="33871.38"
   height="19052.64"
   xlink:href="../../Downloads/Jrouette_Images%5CJrouette_ImgID1.png" />
  </g>
  
  
  
  
  
  <g
   id="g414"
   transform="matrix(0,0.288,-0.288,0,9462.1906,4999.3207)"><path
     class="fil0 str0"
     d="m 5442.351,15767.623 c 2.56,168.72 22.58,544.46 -92.6,667.02 -37.56,39.96 -74.04,33.72 -144.85,34.19 l -531.99,7.86 c -190.13,1.78 -143.09,-88.9 -131.65,663.9 0.41,27.09 8.78,35.33 35.93,34.91 l 850.84,-12.95 c 264.6,-4.06 448.38,-394.02 495.86,-613.35 89.84,-415.01 96.18,-645.55 47.95,-1063.46 -36.62,-317.33 -214.96,-960.21 -595.76,-970.06 -367.55,-9.51 -669.15,-1.56 -1040.17,4.08 -284.97,4.33 -233.98,75.72 -240.09,-244.54 l -21.31,-1347.98 c 0.34,-204.74 309.77,-162.63 375.47,-85.4 38.61,45.39 27.66,96.8 28.64,174.56 l 15.24,1004.48 c 0.46,31.78 0.09,63.86 0.54,95.45 2.09,144.61 42.02,74.58 99.23,24.69 l 1066.3,-979.87 c 286.91,-293.21 226.48,-55.16 216.72,-697.86 -6.81,-448.32 17.96,-386.47 -182.13,-223.3 -126.85,103.45 -454.5,438.22 -569.77,530.1 -31.35,25 -49.11,58.81 -91.95,72.49 -46.81,-87.36 115.41,-376.62 -256.26,-601.41 -76.12,-46.03 -142.94,-63.24 -235.55,-93.23 -215.35,-69.73 -598.32,-33.97 -768.49,78.79 -44.21,29.3 -74.05,52.94 -115.35,86.02 -61.05,48.9 -126.41,155.56 -144.68,243.83 -38.33,185.22 12.53,2266.15 17.45,2590 1.65,108.48 128.01,80.77 237.54,79.08 l 1276.25,-19.39 c 116.28,-1.77 222.37,-26.6 273.34,42.34 74.66,100.99 122.57,339.47 125.3,519.01 z"
     id="path28" /><path
     class="fil0 str0"
     d="m 4220.281,5349.2226 c 2.36,154.78 -1.05,225.8 51.85,330.65 28.51,56.51 34.69,68.49 83.89,105.54 103.75,78.13 294.68,85.22 316.33,-172.72 7.33,-87.33 5.2,-64.87 238.28,33.04 102.97,43.25 479.04,229.41 558.65,228.22 115.76,-1.71 182.16,0.35 254.56,-137.2 88.75,-168.6 55.71,-443.28 52.43,-659.33 -2.39,-157.48 -96.24,-398.42 -296.69,-369.59 -258.67,37.19 -114.82,443.03 -173.94,505.25 -15.79,16.62 -56.45,2.72 -74.39,-4.88 l -162.81,-73.16 c -59.8,-25.41 -379.17,-160.43 -393.32,-182.73 -37.61,-59.26 18.48,-264.19 -75.05,-426.68 -31.35,-54.48 -41.47,-32.3 -74.6,-91.13 269.71,-187.4 -8.68,-346.28 249.7,-233.42 l 391.61,172.41 c 125.27,57.68 291.93,152.55 419.78,89.1 225.07,-111.7 172.85,-495.13 168.88,-755.96 -5.98,-393.61 -327.64,-533.42 -445.86,-257.94 -29.5,68.73 -16.57,185.03 -14.32,277.21 1.34,55.08 13.15,99.72 -30.04,102.07 -27.54,1.49 -93.29,-32.26 -111.36,-41.21 -36.98,-18.32 -68.16,-29.29 -106.91,-45.82 -35.7,-15.24 -64.25,-32.75 -103.86,-48.97 -55.74,-22.83 -280.52,-97.86 -296.99,-149.98 -11.24,-35.55 -6.02,-108.91 -6.34,-149.52 -1.02,-129.19 -28.78,-259.16 -124.28,-327.83 -104.79,-75.35 -234.2,-70.15 -295.62,60.28 -67.68,143.68 28.2,282.61 -95.73,212.47 -75.13,-42.52 -189.83,-99.47 -278.73,-98.12 -116.95,1.78 -189.96,113.12 -194.19,229.51 l -0.38,16.21 c 0.99,77.56 30.55,144.71 74.48,202.16 85.24,111.47 213.32,147.35 347.8,205.49 48.57,20.99 87.39,37.15 125.99,62.16 2.37,155.93 -2.47,247.77 69.3,360.72 26.06,41.02 45.16,54.01 67.52,86.41 -40.64,62.91 -48.06,23.78 -84.18,93.03 l -7.52,15.98 c -60.45,131.1 -16.36,188.18 -38.69,230.36 -14.57,27.52 -69.21,-14.52 -148.95,-51.45 -132.53,-61.37 -272.6,-96.05 -353.47,52.98 -53.31,98.25 -35.07,260.38 48.86,345.08 178.85,180.48 295.11,149.34 468.31,261.31 z"
     id="path30" /><path
     class="fil0 str0"
     d="m 5843.411,9497.0226 c -2.27,-149.37 11.25,-368.5 -44.86,-493.83 -25.88,-57.81 -73.3,-108.35 -83,-142.5 24.74,-38.33 60.79,-64.94 80.81,-107.93 53.21,-114.32 29.35,-420.84 27.12,-567.45 -1.2,-79.45 -34.49,-195.24 -75.03,-258.69 -75.55,-118.23 -235.57,-162.56 -335.64,-58.25 -35.78,37.3 -34.42,68.58 -46.36,129.65 -29.56,151.23 61.54,374.53 -60.61,338.81 -101.25,-29.61 -717.21,-345.46 -832.68,-343.7 -61.82,0.94 -82.93,-0.64 -150.24,75.36 -135.1,152.56 -36.97,368.56 157.81,480.81 60.87,35.08 99.83,50.59 167.51,79.41 l 438.83,195.75 c 214.34,82.42 287.8,167.27 291.63,419.58 3.31,218.15 -236.14,53.91 -493.27,-55.64 l -96.24,-44.82 c -77.92,-35.55 -263.36,-122.93 -335.87,-121.83 -202.08,3.07 -373.85,400.34 127.34,612.8 l 479.64,213.68 c 220.8,90.39 487.85,266.3604 711.71,-71.23 l 49.82,-126.29 c 8.59,-56.88 22.43,-97.56 21.58,-153.69 z"
     id="path32" /><path
     class="fil0 str0"
     d="m 4801.651,7052.9126 c -84.15,-19.23 -155.85,-158.09 -157.81,-279.87 -1.77,-110.39 15.94,-154.78 126.71,-154.73 32.14,58.43 42.62,76.19 48.32,164 l 2.38,177.15 c 0.75,49.54 31.63,49.53 -19.6,93.45 z m 388.76,692.81 c 439.04,-6.67 620.96,-358.06 615.12,-742.12 -3.72,-245.13 10.52,-549.44 -32,-783.14 -12.29,-67.55 -15.46,-70.95 -44.41,-122.23 -89.43,-158.41 -366.29,-223.44 -395.27,98.43 -9.27,102.95 10.66,596.92 10.42,755.34 -0.16,99.85 -37.69,263.95 -127.11,224.61 -47.55,-44.03 14.67,-507.59 -48.64,-728.53 -49.9,-174.12 -195.24,-365.55 -417.02,-362.18 -184.7,2.81 -296.67,32.18 -410.78,195.25 -169.85,242.71 -153.15,641.22 -29.85,895.06 24.17,49.76 59.28,102.06 90.38,146.86 159.24,229.49 448.11,427.83 789.16,422.65 z"
     id="path34" /><path
     class="fil0 str0"
     d="m 4743.211,2433.5726 c -145.27,-40.05 -295.02,-457.3 -44.15,-446.42 29.65,37.4 36.72,49.36 49.02,105.11 l 8.76,191.31 c -1.89,62.21 25.01,44.3 -13.63,150 z m 305.74,669.16 c 239.39,-3.67 401.88,-13.43 558.84,-237.92 49.1,-70.21 69.63,-137.07 95.04,-222.18 46.27,-154.99 35.52,-917.46 10.87,-1005.32 -10.55,-37.61 -7.33,-23.5 -14.68,-68.89 -38.08,-235.18 -331.4,-323.65 -410.61,-119.91 -75.38,193.86 47.34,949.79 -63.88,1068.46 -151.34,161.48 -90.35,-366.89 -97.91,-550.54 -20.14,-489.05 -559.38,-717.34 -856.47,-317.78 -182.12,244.94 -153.69,704.16 9.79,962.61 11.32,17.9 11.92,18.39 22.52,36.79 105.52,183.09 335.25,367.12 542.29,425.11 59.25,16.6 121.38,30.85 204.2,29.57 z"
     id="path36" /><path
     class="fil0 str0"
     d="m 5197.711,11338.953 c -149.53,2.27 -240.3,-61.43 -327.88,-130.18 -68.09,-53.45 -149.79,-183.11 -151.5,-299.92 -4.95,-338.67 386.39,-316.49 574.38,-147.96 33.49,30.03 68.82,72.61 87.39,113.99 64.88,144.58 58.5,460.41 -182.39,464.07 z m 20.26,555.12 c 185.34,-2.82 308.28,-33.85 437.99,-157.21 64.49,-61.34 22.75,-4.93 83.49,-93.57 117,-170.75 131.53,-331.76 128.02,-562.78 -6.41,-422 -154.92,-731.33 -544.03,-903.39 -270.66,-119.69 -565.87,-139.51 -800.94,64.35 -361.4,313.42 -306.37,981.1 49.36,1346.58 133.09,136.73 82.58,81.27 190.79,163.25 71.39,54.09 68.3,44.65 152.74,82.65 99.93,44.96 179.51,61.99 302.58,60.12 z"
     id="path38" /></g>
  
  
  
  
  
  
  
  
  
  
  
  
  
  
  
  
  
  
  
  
  
  
  
  
  
  
  
  
  
  
  
  
  
  
  
  
  
  
  
  
  
  
  
  
  
  
  
  
  
  
  
  
  
  
  
  
  
  
  
  
  
  
  
  
  
  
  
  
  
  
  
  
  
  
  
  
  
  
  
  
  
  
  
  
  
  
  
  
  
  
  
  
  
  
  
  
  
  
  
  
  
  
  
 </g>
</svg>
