999
FreeCAD v0.20 29177 +426 (Git)
  0
SECTION
  2
HEADER
  9
$ACADVER
  1
AC1014
  9
$ACADMAINTVER
 70
     9
  9
$DWGCODEPAGE
  3
ANSI_1252
  9
$TEXTSTYLE
  7
STANDARD
  9
$DIMSTYLE
  2
STANDARD
  9
$DIMTXSTY
  7
STANDARD
  9
$CMLSTYLE
  2
STANDARD
  9
$LUNITS
 70
2
  9
$INSUNITS
 70
4
  9
$PEXTMAX
 10
50
 20
50
 30
50
  9
$PEXTMIN
 10
0
 20
0
 30
0
  9
$HANDSEED
  5
FFFF
  0
ENDSEC
  0
SECTION
  2
CLASSES
  0
CLASS
  1
ACDBDICTIONARYWDFLT
  2
AcDbDictionaryWithDefault
  3
ObjectDBX Classes
 90
        0
280
     0
281
     0
  0
CLASS
  1
XRECORD
  2
AcDbXrecord
  3
ObjectDBX Classes
 90
        0
280
     0
281
     0
  0
CLASS
  1
LWPOLYLINE
  2
AcDbPolyline
  3
ObjectDBX Classes
 90
        0
280
     0
281
     1
  0
ENDSEC
  0
SECTION
  2
TABLES
  0
TABLE
  2
VPORT
  5
20
330
0
100
AcDbSymbolTable
 70
     1
  0
VPORT
  5
21
330
20
100
AcDbSymbolTableRecord
100
AcDbViewportTableRecord
  2
*ACTIVE
 70
     0
  0
ENDTAB
  0
TABLE
  2
LTYPE
  5
22
330
0
100
AcDbSymbolTable
 70
     1
  0
LTYPE
  5
23
330
21
100
AcDbSymbolTableRecord
100
AcDbLinetypeTableRecord
  2
BYBLOCK
 70
     0
  3

 72
    65
 73
     0
 40
0.0
  0
LTYPE
  5
24
330
21
100
AcDbSymbolTableRecord
100
AcDbLinetypeTableRecord
  2
BYLAYER
 70
     0
  3

 72
    65
 73
     0
 40
0.0
  0
LTYPE
  5
25
330
21
100
AcDbSymbolTableRecord
100
AcDbLinetypeTableRecord
  2
CONTINUOUS
 70
     0
  3
Solid line
 72
    65
 73
     0
 40
0.0
  0
ENDTAB
  0
TABLE
  2
LAYER
  5
AF0
330
0
100
AcDbSymbolTable
 70
2
  0
LAYER
  5
AF1
330
AF0
100
AcDbSymbolTableRecord
100
AcDbLayerTableRecord
  2
0
 70
   0
 62
   7
  6
CONTINUOUS
  0
LAYER
  5
AF2
330
AF0
100
AcDbSymbolTableRecord
100
AcDbLayerTableRecord
  2
View
 70
    0
 62
    7
  6
CONTINUOUS
  0
ENDTAB
  0
TABLE
  2
STYLE
  5
70
330
0
100
AcDbSymbolTable
 70
     2
  0
STYLE
  5
71
330
70
100
AcDbSymbolTableRecord
100
AcDbTextStyleTableRecord
  2
STANDARD
 70
     0
 40
0.0
 41
1.0
 50
0.0
 71
     0
 42
2.5
  3
arial.ttf
  4

  0
STYLE
  5
72
330
70
100
AcDbSymbolTableRecord
100
AcDbTextStyleTableRecord
  2
ANNOTATIVE
 70
     0
 40
0.0
 41
1.0
 50
0.0
 71
     0
 42
2.5
  3
arial.ttf
  4

  0
ENDTAB
  0
TABLE
  2
VIEW
  5
73
330
0
100
AcDbSymbolTable
 70
     0
  0
ENDTAB
  0
TABLE
  2
UCS
  5
74
330
0
100
AcDbSymbolTable
 70
     0
  0
ENDTAB
  0
TABLE
  2
APPID
  5
75
330
0
100
AcDbSymbolTable
 70
     2
  0
APPID
  5
76
330
75
100
AcDbSymbolTableRecord
100
AcDbRegAppTableRecord
  2
ACAD
 70
     0
  0
APPID
  5
77
330
75
100
AcDbSymbolTableRecord
100
AcDbRegAppTableRecord
  2
ACADANNOTATIVE
 70
     0
  0
ENDTAB
  0
TABLE
  2
DIMSTYLE
  5
78
330
0
100
AcDbSymbolTable
 70
     2
  0
DIMSTYLE
105
79
330
78
100
AcDbSymbolTableRecord
100
AcDbDimStyleTableRecord
  2
STANDARD
 70
     0
  3

  4

  5

  6

  7

 40
0.0
 41
2.5
 42
0.625
 43
3.75
 44
1.25
 45
0.0
 46
0.0
 47
0.0
 48
0.0
140
2.5
141
2.5
142
0.0
143
0.03937007874016
144
1.0
145
0.0
146
1.0
147
0.625
 71
     0
 72
     0
 73
     0
 74
     0
 75
     0
 76
     0
 77
     1
 78
     8
170
     0
171
     3
172
     1
173
     0
174
     0
175
     0
176
     0
177
     0
178
     0
270
     2
271
     2
272
     2
273
     2
274
     3
340
71
275
     0
280
     0
281
     0
282
     0
283
     0
284
     8
285
     0
286
     0
287
     3
288
     0
  0
ENDTAB
  0
TABLE
  2
BLOCK_RECORD
  5
A01
330
0
100
AcDbSymbolTable
  70
5
  0
BLOCK_RECORD
  5
A02
330
A01
100
AcDbSymbolTableRecord
100
AcDbBlockTableRecord
  2
*MODEL_SPACE
  0
BLOCK_RECORD
  5
A03
330
A01
100
AcDbSymbolTableRecord
100
AcDbBlockTableRecord
  2
*PAPER_SPACE
  0
ENDTAB
  0
ENDSEC
  0
SECTION
  2
BLOCKS
  0
BLOCK
  5
A04
330
A02
100
AcDbEntity
  8
0
100
AcDbBlockBegin
  2
*MODEL_SPACE
 70
   0
 10
0
 20
0
 30
0
  3
*MODEL_SPACE
  1
 
  0
ENDBLK
  5
A05
330
A02
100
AcDbEntity
  8
0
100
AcDbBlockEnd
  0
BLOCK
  5
A06
330
A03
100
AcDbEntity
 67
1
  8
0
100
AcDbBlockBegin
  2
*PAPER_SPACE
 70
   0
 10
0
 20
0
 30
0
  3
*PAPER_SPACE
  1
 
  0
ENDBLK
  5
A07
330
A03
100
AcDbEntity
 67
    1
  8
0
100
AcDbBlockEnd
  0
ENDSEC
  0
SECTION
  2
ENTITIES
  0
LINE
  5
A08
330
A02
100
AcDbEntity
  8
View
100
AcDbLine
 10
126.124
 20
93.3447
 30
0
 11
126.124
 21
83.3447
 31
0
  0
LINE
  5
A09
330
A02
100
AcDbEntity
  8
View
100
AcDbLine
 10
126.124
 20
83.3447
 30
0
 11
116.124
 21
83.3447
 31
0
  0
LINE
  5
A0A
330
A02
100
AcDbEntity
  8
View
100
AcDbLine
 10
116.124
 20
84.8447
 30
0
 11
116.124
 21
83.3447
 31
0
  0
LINE
  5
A0B
330
A02
100
AcDbEntity
  8
View
100
AcDbLine
 10
113.124
 20
84.8447
 30
0
 11
116.124
 21
84.8447
 31
0
  0
LINE
  5
A0C
330
A02
100
AcDbEntity
  8
View
100
AcDbLine
 10
113.124
 20
83.3447
 30
0
 11
113.124
 21
84.8447
 31
0
  0
LINE
  5
A0D
330
A02
100
AcDbEntity
  8
View
100
AcDbLine
 10
113.124
 20
83.3447
 30
0
 11
99.124
 21
83.3447
 31
0
  0
LINE
  5
A0E
330
A02
100
AcDbEntity
  8
View
100
AcDbLine
 10
99.124
 20
83.3447
 30
0
 11
99.124
 21
84.8447
 31
0
  0
LINE
  5
A0F
330
A02
100
AcDbEntity
  8
View
100
AcDbLine
 10
99.124
 20
84.8447
 30
0
 11
96.124
 21
84.8447
 31
0
  0
LINE
  5
A10
330
A02
100
AcDbEntity
  8
View
100
AcDbLine
 10
96.124
 20
84.8447
 30
0
 11
96.124
 21
83.3447
 31
0
  0
LINE
  5
A11
330
A02
100
AcDbEntity
  8
View
100
AcDbLine
 10
96.124
 20
83.3447
 30
0
 11
86.124
 21
83.3447
 31
0
  0
LINE
  5
A12
330
A02
100
AcDbEntity
  8
View
100
AcDbLine
 10
86.124
 20
83.3447
 30
0
 11
86.124
 21
93.3447
 31
0
  0
LINE
  5
A13
330
A02
100
AcDbEntity
  8
View
100
AcDbLine
 10
86.124
 20
93.3447
 30
0
 11
87.624
 21
93.3447
 31
0
  0
LINE
  5
A14
330
A02
100
AcDbEntity
  8
View
100
AcDbLine
 10
87.624
 20
93.3447
 30
0
 11
87.624
 21
96.3447
 31
0
  0
LINE
  5
A15
330
A02
100
AcDbEntity
  8
View
100
AcDbLine
 10
87.624
 20
96.3447
 30
0
 11
86.124
 21
96.3447
 31
0
  0
LINE
  5
A16
330
A02
100
AcDbEntity
  8
View
100
AcDbLine
 10
86.124
 20
96.3447
 30
0
 11
86.124
 21
110.345
 31
0
  0
LINE
  5
A17
330
A02
100
AcDbEntity
  8
View
100
AcDbLine
 10
86.124
 20
110.345
 30
0
 11
87.624
 21
110.345
 31
0
  0
LINE
  5
A18
330
A02
100
AcDbEntity
  8
View
100
AcDbLine
 10
87.624
 20
110.345
 30
0
 11
87.624
 21
113.345
 31
0
  0
LINE
  5
A19
330
A02
100
AcDbEntity
  8
View
100
AcDbLine
 10
87.624
 20
113.345
 30
0
 11
86.124
 21
113.345
 31
0
  0
LINE
  5
A1A
330
A02
100
AcDbEntity
  8
View
100
AcDbLine
 10
86.124
 20
113.345
 30
0
 11
86.124
 21
123.345
 31
0
  0
LINE
  5
A1B
330
A02
100
AcDbEntity
  8
View
100
AcDbLine
 10
86.124
 20
123.345
 30
0
 11
96.124
 21
123.345
 31
0
  0
LINE
  5
A1C
330
A02
100
AcDbEntity
  8
View
100
AcDbLine
 10
96.124
 20
123.345
 30
0
 11
96.124
 21
121.845
 31
0
  0
LINE
  5
A1D
330
A02
100
AcDbEntity
  8
View
100
AcDbLine
 10
96.124
 20
121.845
 30
0
 11
99.124
 21
121.845
 31
0
  0
LINE
  5
A1E
330
A02
100
AcDbEntity
  8
View
100
AcDbLine
 10
99.124
 20
121.845
 30
0
 11
99.124
 21
123.345
 31
0
  0
LINE
  5
A1F
330
A02
100
AcDbEntity
  8
View
100
AcDbLine
 10
99.124
 20
123.345
 30
0
 11
113.124
 21
123.345
 31
0
  0
LINE
  5
A20
330
A02
100
AcDbEntity
  8
View
100
AcDbLine
 10
113.124
 20
123.345
 30
0
 11
113.124
 21
121.845
 31
0
  0
LINE
  5
A21
330
A02
100
AcDbEntity
  8
View
100
AcDbLine
 10
113.124
 20
121.845
 30
0
 11
116.124
 21
121.845
 31
0
  0
LINE
  5
A22
330
A02
100
AcDbEntity
  8
View
100
AcDbLine
 10
116.124
 20
121.845
 30
0
 11
116.124
 21
123.345
 31
0
  0
LINE
  5
A23
330
A02
100
AcDbEntity
  8
View
100
AcDbLine
 10
116.124
 20
123.345
 30
0
 11
126.124
 21
123.345
 31
0
  0
LINE
  5
A24
330
A02
100
AcDbEntity
  8
View
100
AcDbLine
 10
126.124
 20
123.345
 30
0
 11
126.124
 21
113.345
 31
0
  0
LINE
  5
A25
330
A02
100
AcDbEntity
  8
View
100
AcDbLine
 10
124.624
 20
113.345
 30
0
 11
126.124
 21
113.345
 31
0
  0
LINE
  5
A26
330
A02
100
AcDbEntity
  8
View
100
AcDbLine
 10
124.624
 20
110.345
 30
0
 11
124.624
 21
113.345
 31
0
  0
LINE
  5
A27
330
A02
100
AcDbEntity
  8
View
100
AcDbLine
 10
126.124
 20
110.345
 30
0
 11
124.624
 21
110.345
 31
0
  0
LINE
  5
A28
330
A02
100
AcDbEntity
  8
View
100
AcDbLine
 10
126.124
 20
110.345
 30
0
 11
126.124
 21
96.3447
 31
0
  0
LINE
  5
A29
330
A02
100
AcDbEntity
  8
View
100
AcDbLine
 10
124.624
 20
96.3447
 30
0
 11
126.124
 21
96.3447
 31
0
  0
LINE
  5
A2A
330
A02
100
AcDbEntity
  8
View
100
AcDbLine
 10
124.624
 20
93.3447
 30
0
 11
124.624
 21
96.3447
 31
0
  0
LINE
  5
A2B
330
A02
100
AcDbEntity
  8
View
100
AcDbLine
 10
126.124
 20
93.3447
 30
0
 11
124.624
 21
93.3447
 31
0
  0
LINE
  5
A2C
330
A02
100
AcDbEntity
  8
View
100
AcDbLine
 10
126.124
 20
146.66
 30
0
 11
126.124
 21
136.66
 31
0
  0
LINE
  5
A2D
330
A02
100
AcDbEntity
  8
View
100
AcDbLine
 10
126.124
 20
146.66
 30
0
 11
124.624
 21
146.66
 31
0
  0
LINE
  5
A2E
330
A02
100
AcDbEntity
  8
View
100
AcDbLine
 10
126.124
 20
136.66
 30
0
 11
116.124
 21
136.66
 31
0
  0
LINE
  5
A2F
330
A02
100
AcDbEntity
  8
View
100
AcDbLine
 10
124.624
 20
146.66
 30
0
 11
124.624
 21
149.66
 31
0
  0
LINE
  5
A30
330
A02
100
AcDbEntity
  8
View
100
AcDbLine
 10
116.124
 20
136.66
 30
0
 11
116.124
 21
135.16
 31
0
  0
LINE
  5
A31
330
A02
100
AcDbEntity
  8
View
100
AcDbLine
 10
124.624
 20
149.66
 30
0
 11
126.124
 21
149.66
 31
0
  0
LINE
  5
A32
330
A02
100
AcDbEntity
  8
View
100
AcDbLine
 10
116.124
 20
135.16
 30
0
 11
113.124
 21
135.16
 31
0
  0
LINE
  5
A33
330
A02
100
AcDbEntity
  8
View
100
AcDbLine
 10
126.124
 20
163.66
 30
0
 11
126.124
 21
149.66
 31
0
  0
LINE
  5
A34
330
A02
100
AcDbEntity
  8
View
100
AcDbLine
 10
113.124
 20
135.16
 30
0
 11
113.124
 21
136.66
 31
0
  0
LINE
  5
A35
330
A02
100
AcDbEntity
  8
View
100
AcDbLine
 10
126.124
 20
163.66
 30
0
 11
124.624
 21
163.66
 31
0
  0
LINE
  5
A36
330
A02
100
AcDbEntity
  8
View
100
AcDbLine
 10
113.124
 20
136.66
 30
0
 11
99.124
 21
136.66
 31
0
  0
LINE
  5
A37
330
A02
100
AcDbEntity
  8
View
100
AcDbLine
 10
124.624
 20
163.66
 30
0
 11
124.624
 21
166.66
 31
0
  0
LINE
  5
A38
330
A02
100
AcDbEntity
  8
View
100
AcDbLine
 10
99.124
 20
136.66
 30
0
 11
99.124
 21
135.16
 31
0
  0
LINE
  5
A39
330
A02
100
AcDbEntity
  8
View
100
AcDbLine
 10
124.624
 20
166.66
 30
0
 11
126.124
 21
166.66
 31
0
  0
LINE
  5
A3A
330
A02
100
AcDbEntity
  8
View
100
AcDbLine
 10
99.124
 20
135.16
 30
0
 11
96.124
 21
135.16
 31
0
  0
LINE
  5
A3B
330
A02
100
AcDbEntity
  8
View
100
AcDbLine
 10
126.124
 20
176.66
 30
0
 11
126.124
 21
166.66
 31
0
  0
LINE
  5
A3C
330
A02
100
AcDbEntity
  8
View
100
AcDbLine
 10
96.124
 20
135.16
 30
0
 11
96.124
 21
136.66
 31
0
  0
LINE
  5
A3D
330
A02
100
AcDbEntity
  8
View
100
AcDbLine
 10
119.053
 20
183.731
 30
0
 11
126.124
 21
176.66
 31
0
  0
LINE
  5
A3E
330
A02
100
AcDbEntity
  8
View
100
AcDbLine
 10
96.124
 20
136.66
 30
0
 11
86.124
 21
136.66
 31
0
  0
LINE
  5
A3F
330
A02
100
AcDbEntity
  8
View
100
AcDbLine
 10
119.053
 20
183.731
 30
0
 11
120.114
 21
184.792
 31
0
  0
LINE
  5
A40
330
A02
100
AcDbEntity
  8
View
100
AcDbLine
 10
86.124
 20
136.66
 30
0
 11
86.124
 21
146.66
 31
0
  0
LINE
  5
A41
330
A02
100
AcDbEntity
  8
View
100
AcDbLine
 10
120.114
 20
184.792
 30
0
 11
117.992
 21
186.913
 31
0
  0
LINE
  5
A42
330
A02
100
AcDbEntity
  8
View
100
AcDbLine
 10
86.124
 20
146.66
 30
0
 11
87.624
 21
146.66
 31
0
  0
LINE
  5
A43
330
A02
100
AcDbEntity
  8
View
100
AcDbLine
 10
117.992
 20
186.913
 30
0
 11
116.932
 21
185.853
 31
0
  0
LINE
  5
A44
330
A02
100
AcDbEntity
  8
View
100
AcDbLine
 10
87.624
 20
146.66
 30
0
 11
87.624
 21
149.66
 31
0
  0
LINE
  5
A45
330
A02
100
AcDbEntity
  8
View
100
AcDbLine
 10
106.124
 20
196.66
 30
0
 11
116.932
 21
185.853
 31
0
  0
LINE
  5
A46
330
A02
100
AcDbEntity
  8
View
100
AcDbLine
 10
87.624
 20
149.66
 30
0
 11
86.124
 21
149.66
 31
0
  0
LINE
  5
A47
330
A02
100
AcDbEntity
  8
View
100
AcDbLine
 10
95.3164
 20
185.853
 30
0
 11
106.124
 21
196.66
 31
0
  0
LINE
  5
A48
330
A02
100
AcDbEntity
  8
View
100
AcDbLine
 10
86.124
 20
149.66
 30
0
 11
86.124
 21
163.66
 31
0
  0
LINE
  5
A49
330
A02
100
AcDbEntity
  8
View
100
AcDbLine
 10
95.3164
 20
185.853
 30
0
 11
94.2557
 21
186.913
 31
0
  0
LINE
  5
A4A
330
A02
100
AcDbEntity
  8
View
100
AcDbLine
 10
86.124
 20
163.66
 30
0
 11
87.624
 21
163.66
 31
0
  0
LINE
  5
A4B
330
A02
100
AcDbEntity
  8
View
100
AcDbLine
 10
94.2557
 20
186.913
 30
0
 11
92.1344
 21
184.792
 31
0
  0
LINE
  5
A4C
330
A02
100
AcDbEntity
  8
View
100
AcDbLine
 10
87.624
 20
163.66
 30
0
 11
87.624
 21
166.66
 31
0
  0
LINE
  5
A4D
330
A02
100
AcDbEntity
  8
View
100
AcDbLine
 10
92.1344
 20
184.792
 30
0
 11
93.1951
 21
183.731
 31
0
  0
LINE
  5
A4E
330
A02
100
AcDbEntity
  8
View
100
AcDbLine
 10
87.624
 20
166.66
 30
0
 11
86.124
 21
166.66
 31
0
  0
LINE
  5
A4F
330
A02
100
AcDbEntity
  8
View
100
AcDbLine
 10
86.124
 20
176.66
 30
0
 11
93.1951
 21
183.731
 31
0
  0
LINE
  5
A50
330
A02
100
AcDbEntity
  8
View
100
AcDbLine
 10
86.124
 20
166.66
 30
0
 11
86.124
 21
176.66
 31
0
  0
LINE
  5
A51
330
A02
100
AcDbEntity
  8
View
100
AcDbLine
 10
107.552
 20
147.259
 30
0
 11
107.552
 21
154.186
 31
0
  0
LINE
  5
A52
330
A02
100
AcDbEntity
  8
View
100
AcDbLine
 10
107.552
 20
154.186
 30
0
 11
113.552
 21
150.723
 31
0
  0
LINE
  5
A53
330
A02
100
AcDbEntity
  8
View
100
AcDbLine
 10
113.588
 20
147.882
 30
0
 11
113.552
 21
150.723
 31
0
  0
ARC
  5
A54
330
A02
100
AcDbEntity
  8
View
100
AcDbCircle
 10
115.016
 20
147.9
 30
0
 40
1.42844
100
AcDbArc
 50
-179.271
 51
0.728591
  0
LINE
  5
A55
330
A02
100
AcDbEntity
  8
View
100
AcDbLine
 10
116.444
 20
147.918
 30
0
 11
116.43
 21
149.061
 31
0
  0
LINE
  5
A56
330
A02
100
AcDbEntity
  8
View
100
AcDbLine
 10
116.43
 20
149.061
 30
0
 11
117.42
 21
148.489
 31
0
  0
ARC
  5
A57
330
A02
100
AcDbEntity
  8
View
100
AcDbCircle
 10
118.166
 20
149.708
 30
0
 40
1.4289
100
AcDbArc
 50
-121.459
 51
61.4593
  0
LINE
  5
A58
330
A02
100
AcDbEntity
  8
View
100
AcDbLine
 10
118.848
 20
150.963
 30
0
 11
117.858
 21
151.535
 31
0
  0
LINE
  5
A59
330
A02
100
AcDbEntity
  8
View
100
AcDbLine
 10
118.845
 20
152.111
 30
0
 11
117.858
 21
151.535
 31
0
  0
ARC
  5
A5A
330
A02
100
AcDbEntity
  8
View
100
AcDbCircle
 10
118.118
 20
153.358
 30
0
 40
1.44309
100
AcDbArc
 50
-59.7252
 51
120.275
  0
LINE
  5
A5B
330
A02
100
AcDbEntity
  8
View
100
AcDbLine
 10
117.39
 20
154.604
 30
0
 11
114.98
 21
153.197
 31
0
  0
LINE
  5
A5C
330
A02
100
AcDbEntity
  8
View
100
AcDbLine
 10
114.98
 20
153.197
 30
0
 11
108.981
 21
156.66
 31
0
  0
LINE
  5
A5D
330
A02
100
AcDbEntity
  8
View
100
AcDbLine
 10
108.981
 20
156.66
 30
0
 11
114.98
 21
160.124
 31
0
  0
LINE
  5
A5E
330
A02
100
AcDbEntity
  8
View
100
AcDbLine
 10
117.459
 20
158.735
 30
0
 11
114.98
 21
160.124
 31
0
  0
ARC
  5
A5F
330
A02
100
AcDbEntity
  8
View
100
AcDbCircle
 10
118.157
 20
159.981
 30
0
 40
1.42844
100
AcDbArc
 50
-119.271
 51
60.7286
  0
LINE
  5
A60
330
A02
100
AcDbEntity
  8
View
100
AcDbLine
 10
118.855
 20
161.227
 30
0
 11
117.858
 21
161.786
 31
0
  0
LINE
  5
A61
330
A02
100
AcDbEntity
  8
View
100
AcDbLine
 10
117.858
 20
161.786
 30
0
 11
118.848
 21
162.357
 31
0
  0
ARC
  5
A62
330
A02
100
AcDbEntity
  8
View
100
AcDbCircle
 10
118.166
 20
163.613
 30
0
 40
1.4289
100
AcDbArc
 50
-61.4593
 51
121.459
  0
LINE
  5
A63
330
A02
100
AcDbEntity
  8
View
100
AcDbLine
 10
117.42
 20
164.831
 30
0
 11
116.43
 21
164.26
 31
0
  0
LINE
  5
A64
330
A02
100
AcDbEntity
  8
View
100
AcDbLine
 10
116.424
 20
165.403
 30
0
 11
116.43
 21
164.26
 31
0
  0
ARC
  5
A65
330
A02
100
AcDbEntity
  8
View
100
AcDbCircle
 10
114.981
 20
165.396
 30
0
 40
1.44309
100
AcDbArc
 50
0.274812
 51
-179.725
  0
LINE
  5
A66
330
A02
100
AcDbEntity
  8
View
100
AcDbLine
 10
113.538
 20
165.389
 30
0
 11
113.552
 21
162.598
 31
0
  0
LINE
  5
A67
330
A02
100
AcDbEntity
  8
View
100
AcDbLine
 10
113.552
 20
162.598
 30
0
 11
107.552
 21
159.135
 31
0
  0
LINE
  5
A68
330
A02
100
AcDbEntity
  8
View
100
AcDbLine
 10
107.552
 20
159.135
 30
0
 11
107.552
 21
166.062
 31
0
  0
LINE
  5
A69
330
A02
100
AcDbEntity
  8
View
100
AcDbLine
 10
109.995
 20
167.514
 30
0
 11
107.552
 21
166.062
 31
0
  0
ARC
  5
A6A
330
A02
100
AcDbEntity
  8
View
100
AcDbCircle
 10
109.265
 20
168.741
 30
0
 40
1.42844
100
AcDbArc
 50
-59.2714
 51
120.729
  0
LINE
  5
A6B
330
A02
100
AcDbEntity
  8
View
100
AcDbLine
 10
108.535
 20
169.969
 30
0
 11
107.552
 21
169.385
 31
0
  0
LINE
  5
A6C
330
A02
100
AcDbEntity
  8
View
100
AcDbLine
 10
107.552
 20
169.385
 30
0
 11
107.552
 21
170.528
 31
0
  0
ARC
  5
A6D
330
A02
100
AcDbEntity
  8
View
100
AcDbCircle
 10
106.124
 20
170.565
 30
0
 40
1.4289
100
AcDbArc
 50
-1.45932
 51
-178.541
  0
LINE
  5
A6E
330
A02
100
AcDbEntity
  8
View
100
AcDbLine
 10
104.696
 20
170.528
 30
0
 11
104.696
 21
169.385
 31
0
  0
LINE
  5
A6F
330
A02
100
AcDbEntity
  8
View
100
AcDbLine
 10
103.703
 20
169.952
 30
0
 11
104.696
 21
169.385
 31
0
  0
ARC
  5
A70
330
A02
100
AcDbEntity
  8
View
100
AcDbCircle
 10
102.987
 20
168.699
 30
0
 40
1.44309
100
AcDbArc
 50
60.2748
 51
-119.725
  0
LINE
  5
A71
330
A02
100
AcDbEntity
  8
View
100
AcDbLine
 10
102.272
 20
167.446
 30
0
 11
104.696
 21
166.062
 31
0
  0
LINE
  5
A72
330
A02
100
AcDbEntity
  8
View
100
AcDbLine
 10
104.696
 20
166.062
 30
0
 11
104.696
 21
159.135
 31
0
  0
LINE
  5
A73
330
A02
100
AcDbEntity
  8
View
100
AcDbLine
 10
104.696
 20
159.135
 30
0
 11
98.6965
 21
162.598
 31
0
  0
LINE
  5
A74
330
A02
100
AcDbEntity
  8
View
100
AcDbLine
 10
98.6603
 20
165.439
 30
0
 11
98.6965
 21
162.598
 31
0
  0
ARC
  5
A75
330
A02
100
AcDbEntity
  8
View
100
AcDbCircle
 10
97.232
 20
165.421
 30
0
 40
1.42844
100
AcDbArc
 50
0.728591
 51
-179.271
  0
LINE
  5
A76
330
A02
100
AcDbEntity
  8
View
100
AcDbLine
 10
95.8037
 20
165.403
 30
0
 11
95.8182
 21
164.26
 31
0
  0
LINE
  5
A77
330
A02
100
AcDbEntity
  8
View
100
AcDbLine
 10
95.8182
 20
164.26
 30
0
 11
94.8282
 21
164.831
 31
0
  0
ARC
  5
A78
330
A02
100
AcDbEntity
  8
View
100
AcDbCircle
 10
94.0825
 20
163.613
 30
0
 40
1.4289
100
AcDbArc
 50
58.5407
 51
-118.541
  0
LINE
  5
A79
330
A02
100
AcDbEntity
  8
View
100
AcDbLine
 10
93.3998
 20
162.357
 30
0
 11
94.3898
 21
161.786
 31
0
  0
LINE
  5
A7A
330
A02
100
AcDbEntity
  8
View
100
AcDbLine
 10
93.4025
 20
161.209
 30
0
 11
94.3898
 21
161.786
 31
0
  0
ARC
  5
A7B
330
A02
100
AcDbEntity
  8
View
100
AcDbCircle
 10
94.1301
 20
159.963
 30
0
 40
1.44309
100
AcDbArc
 50
120.275
 51
-59.7252
  0
LINE
  5
A7C
330
A02
100
AcDbEntity
  8
View
100
AcDbLine
 10
94.8576
 20
158.717
 30
0
 11
97.268
 21
160.124
 31
0
  0
LINE
  5
A7D
330
A02
100
AcDbEntity
  8
View
100
AcDbLine
 10
97.268
 20
160.124
 30
0
 11
103.267
 21
156.66
 31
0
  0
LINE
  5
A7E
330
A02
100
AcDbEntity
  8
View
100
AcDbLine
 10
103.267
 20
156.66
 30
0
 11
97.268
 21
153.197
 31
0
  0
LINE
  5
A7F
330
A02
100
AcDbEntity
  8
View
100
AcDbLine
 10
94.7895
 20
154.586
 30
0
 11
97.268
 21
153.197
 31
0
  0
ARC
  5
A80
330
A02
100
AcDbEntity
  8
View
100
AcDbCircle
 10
94.091
 20
153.34
 30
0
 40
1.42844
100
AcDbArc
 50
60.7286
 51
-119.271
  0
LINE
  5
A81
330
A02
100
AcDbEntity
  8
View
100
AcDbLine
 10
93.3926
 20
152.094
 30
0
 11
94.3898
 21
151.535
 31
0
  0
LINE
  5
A82
330
A02
100
AcDbEntity
  8
View
100
AcDbLine
 10
94.3898
 20
151.535
 30
0
 11
93.3998
 21
150.963
 31
0
  0
ARC
  5
A83
330
A02
100
AcDbEntity
  8
View
100
AcDbCircle
 10
94.0825
 20
149.708
 30
0
 40
1.4289
100
AcDbArc
 50
118.541
 51
-58.5407
  0
LINE
  5
A84
330
A02
100
AcDbEntity
  8
View
100
AcDbLine
 10
94.8282
 20
148.489
 30
0
 11
95.8182
 21
149.061
 31
0
  0
LINE
  5
A85
330
A02
100
AcDbEntity
  8
View
100
AcDbLine
 10
95.8237
 20
147.918
 30
0
 11
95.8182
 21
149.061
 31
0
  0
ARC
  5
A86
330
A02
100
AcDbEntity
  8
View
100
AcDbCircle
 10
97.2668
 20
147.925
 30
0
 40
1.44309
100
AcDbArc
 50
-179.725
 51
0.274812
  0
LINE
  5
A87
330
A02
100
AcDbEntity
  8
View
100
AcDbLine
 10
98.7099
 20
147.932
 30
0
 11
98.6965
 21
150.723
 31
0
  0
LINE
  5
A88
330
A02
100
AcDbEntity
  8
View
100
AcDbLine
 10
98.6965
 20
150.723
 30
0
 11
104.696
 21
154.186
 31
0
  0
LINE
  5
A89
330
A02
100
AcDbEntity
  8
View
100
AcDbLine
 10
104.696
 20
154.186
 30
0
 11
104.696
 21
147.259
 31
0
  0
LINE
  5
A8A
330
A02
100
AcDbEntity
  8
View
100
AcDbLine
 10
102.253
 20
145.807
 30
0
 11
104.696
 21
147.259
 31
0
  0
ARC
  5
A8B
330
A02
100
AcDbEntity
  8
View
100
AcDbCircle
 10
102.983
 20
144.579
 30
0
 40
1.42844
100
AcDbArc
 50
120.729
 51
-59.2714
  0
LINE
  5
A8C
330
A02
100
AcDbEntity
  8
View
100
AcDbLine
 10
103.713
 20
143.351
 30
0
 11
104.696
 21
143.936
 31
0
  0
LINE
  5
A8D
330
A02
100
AcDbEntity
  8
View
100
AcDbLine
 10
104.696
 20
143.936
 30
0
 11
104.696
 21
142.792
 31
0
  0
ARC
  5
A8E
330
A02
100
AcDbEntity
  8
View
100
AcDbCircle
 10
106.124
 20
142.756
 30
0
 40
1.4289
100
AcDbArc
 50
178.541
 51
1.45932
  0
LINE
  5
A8F
330
A02
100
AcDbEntity
  8
View
100
AcDbLine
 10
107.552
 20
142.792
 30
0
 11
107.552
 21
143.936
 31
0
  0
LINE
  5
A90
330
A02
100
AcDbEntity
  8
View
100
AcDbLine
 10
108.545
 20
143.369
 30
0
 11
107.552
 21
143.936
 31
0
  0
ARC
  5
A91
330
A02
100
AcDbEntity
  8
View
100
AcDbCircle
 10
109.261
 20
144.622
 30
0
 40
1.44309
100
AcDbArc
 50
-119.725
 51
60.2748
  0
LINE
  5
A92
330
A02
100
AcDbEntity
  8
View
100
AcDbLine
 10
109.976
 20
145.875
 30
0
 11
107.552
 21
147.259
 31
0
  0
LINE
  5
A93
330
A02
100
AcDbEntity
  8
View
100
AcDbLine
 10
71.6388
 20
84.8447
 30
0
 11
61.6388
 21
84.8447
 31
0
  0
LINE
  5
A94
330
A02
100
AcDbEntity
  8
View
100
AcDbLine
 10
61.6388
 20
84.8447
 30
0
 11
61.6388
 21
83.3447
 31
0
  0
LINE
  5
A95
330
A02
100
AcDbEntity
  8
View
100
AcDbLine
 10
61.6388
 20
83.3447
 30
0
 11
58.6388
 21
83.3447
 31
0
  0
LINE
  5
A96
330
A02
100
AcDbEntity
  8
View
100
AcDbLine
 10
58.6388
 20
83.3447
 30
0
 11
58.6388
 21
84.8447
 31
0
  0
LINE
  5
A97
330
A02
100
AcDbEntity
  8
View
100
AcDbLine
 10
58.6388
 20
84.8447
 30
0
 11
44.6388
 21
84.8447
 31
0
  0
LINE
  5
A98
330
A02
100
AcDbEntity
  8
View
100
AcDbLine
 10
44.6388
 20
84.8447
 30
0
 11
44.6388
 21
83.3447
 31
0
  0
LINE
  5
A99
330
A02
100
AcDbEntity
  8
View
100
AcDbLine
 10
44.6388
 20
83.3447
 30
0
 11
41.6388
 21
83.3447
 31
0
  0
LINE
  5
A9A
330
A02
100
AcDbEntity
  8
View
100
AcDbLine
 10
41.6388
 20
83.3447
 30
0
 11
41.6388
 21
84.8447
 31
0
  0
LINE
  5
A9B
330
A02
100
AcDbEntity
  8
View
100
AcDbLine
 10
41.6388
 20
84.8447
 30
0
 11
31.6388
 21
84.8447
 31
0
  0
LINE
  5
A9C
330
A02
100
AcDbEntity
  8
View
100
AcDbLine
 10
31.6388
 20
84.8447
 30
0
 11
31.6388
 21
93.3447
 31
0
  0
LINE
  5
A9D
330
A02
100
AcDbEntity
  8
View
100
AcDbLine
 10
31.6388
 20
93.3447
 30
0
 11
30.1388
 21
93.3447
 31
0
  0
LINE
  5
A9E
330
A02
100
AcDbEntity
  8
View
100
AcDbLine
 10
30.1388
 20
93.3447
 30
0
 11
30.1388
 21
96.3447
 31
0
  0
LINE
  5
A9F
330
A02
100
AcDbEntity
  8
View
100
AcDbLine
 10
30.1388
 20
96.3447
 30
0
 11
31.6388
 21
96.3447
 31
0
  0
LINE
  5
AA0
330
A02
100
AcDbEntity
  8
View
100
AcDbLine
 10
31.6388
 20
96.3447
 30
0
 11
31.6388
 21
110.345
 31
0
  0
LINE
  5
AA1
330
A02
100
AcDbEntity
  8
View
100
AcDbLine
 10
31.6388
 20
110.345
 30
0
 11
30.1388
 21
110.345
 31
0
  0
LINE
  5
AA2
330
A02
100
AcDbEntity
  8
View
100
AcDbLine
 10
30.1388
 20
110.345
 30
0
 11
30.1388
 21
113.345
 31
0
  0
LINE
  5
AA3
330
A02
100
AcDbEntity
  8
View
100
AcDbLine
 10
30.1388
 20
113.345
 30
0
 11
31.6388
 21
113.345
 31
0
  0
LINE
  5
AA4
330
A02
100
AcDbEntity
  8
View
100
AcDbLine
 10
31.6388
 20
113.345
 30
0
 11
31.6388
 21
121.845
 31
0
  0
LINE
  5
AA5
330
A02
100
AcDbEntity
  8
View
100
AcDbLine
 10
31.6388
 20
121.845
 30
0
 11
41.6388
 21
121.845
 31
0
  0
LINE
  5
AA6
330
A02
100
AcDbEntity
  8
View
100
AcDbLine
 10
41.6388
 20
123.345
 30
0
 11
41.6388
 21
121.845
 31
0
  0
LINE
  5
AA7
330
A02
100
AcDbEntity
  8
View
100
AcDbLine
 10
44.6388
 20
123.345
 30
0
 11
41.6388
 21
123.345
 31
0
  0
LINE
  5
AA8
330
A02
100
AcDbEntity
  8
View
100
AcDbLine
 10
44.6388
 20
121.845
 30
0
 11
44.6388
 21
123.345
 31
0
  0
LINE
  5
AA9
330
A02
100
AcDbEntity
  8
View
100
AcDbLine
 10
44.6388
 20
121.845
 30
0
 11
58.6388
 21
121.845
 31
0
  0
LINE
  5
AAA
330
A02
100
AcDbEntity
  8
View
100
AcDbLine
 10
58.6388
 20
123.345
 30
0
 11
58.6388
 21
121.845
 31
0
  0
LINE
  5
AAB
330
A02
100
AcDbEntity
  8
View
100
AcDbLine
 10
61.6388
 20
123.345
 30
0
 11
58.6388
 21
123.345
 31
0
  0
LINE
  5
AAC
330
A02
100
AcDbEntity
  8
View
100
AcDbLine
 10
61.6388
 20
121.845
 30
0
 11
61.6388
 21
123.345
 31
0
  0
LINE
  5
AAD
330
A02
100
AcDbEntity
  8
View
100
AcDbLine
 10
61.6388
 20
121.845
 30
0
 11
71.6388
 21
121.845
 31
0
  0
LINE
  5
AAE
330
A02
100
AcDbEntity
  8
View
100
AcDbLine
 10
71.6388
 20
84.8447
 30
0
 11
71.6388
 21
121.845
 31
0
  0
LINE
  5
AAF
330
A02
100
AcDbEntity
  8
View
100
AcDbLine
 10
167.324
 20
75.3447
 30
0
 11
133.079
 21
75.3447
 31
0
  0
LINE
  5
AB0
330
A02
100
AcDbEntity
  8
View
100
AcDbLine
 10
133.079
 20
75.3447
 30
0
 11
133.079
 21
131.345
 31
0
  0
LINE
  5
AB1
330
A02
100
AcDbEntity
  8
View
100
AcDbLine
 10
133.079
 20
131.345
 30
0
 11
167.324
 21
131.345
 31
0
  0
LINE
  5
AB2
330
A02
100
AcDbEntity
  8
View
100
AcDbLine
 10
167.324
 20
131.345
 30
0
 11
167.324
 21
75.3447
 31
0
  0
LINE
  5
AB3
330
A02
100
AcDbEntity
  8
View
100
AcDbLine
 10
151.379
 20
121.845
 30
0
 11
148.379
 21
121.845
 31
0
  0
LINE
  5
AB4
330
A02
100
AcDbEntity
  8
View
100
AcDbLine
 10
148.379
 20
121.845
 30
0
 11
148.379
 21
123.345
 31
0
  0
LINE
  5
AB5
330
A02
100
AcDbEntity
  8
View
100
AcDbLine
 10
148.379
 20
123.345
 30
0
 11
151.379
 21
123.345
 31
0
  0
LINE
  5
AB6
330
A02
100
AcDbEntity
  8
View
100
AcDbLine
 10
151.379
 20
123.345
 30
0
 11
151.379
 21
121.845
 31
0
  0
LINE
  5
AB7
330
A02
100
AcDbEntity
  8
View
100
AcDbLine
 10
151.379
 20
83.3447
 30
0
 11
148.379
 21
83.3447
 31
0
  0
LINE
  5
AB8
330
A02
100
AcDbEntity
  8
View
100
AcDbLine
 10
148.379
 20
83.3447
 30
0
 11
148.379
 21
84.8447
 31
0
  0
LINE
  5
AB9
330
A02
100
AcDbEntity
  8
View
100
AcDbLine
 10
148.379
 20
84.8447
 30
0
 11
151.379
 21
84.8447
 31
0
  0
LINE
  5
ABA
330
A02
100
AcDbEntity
  8
View
100
AcDbLine
 10
151.379
 20
84.8447
 30
0
 11
151.379
 21
83.3447
 31
0
  0
LINE
  5
ABB
330
A02
100
AcDbEntity
  8
View
100
AcDbLine
 10
126.124
 20
26.6604
 30
0
 11
126.124
 21
16.6604
 31
0
  0
LINE
  5
ABC
330
A02
100
AcDbEntity
  8
View
100
AcDbLine
 10
126.124
 20
26.6604
 30
0
 11
124.624
 21
26.6604
 31
0
  0
LINE
  5
ABD
330
A02
100
AcDbEntity
  8
View
100
AcDbLine
 10
126.124
 20
16.6604
 30
0
 11
116.124
 21
16.6604
 31
0
  0
LINE
  5
ABE
330
A02
100
AcDbEntity
  8
View
100
AcDbLine
 10
124.624
 20
26.6604
 30
0
 11
124.624
 21
29.6604
 31
0
  0
LINE
  5
ABF
330
A02
100
AcDbEntity
  8
View
100
AcDbLine
 10
116.124
 20
16.6604
 30
0
 11
116.124
 21
15.1604
 31
0
  0
LINE
  5
AC0
330
A02
100
AcDbEntity
  8
View
100
AcDbLine
 10
124.624
 20
29.6604
 30
0
 11
126.124
 21
29.6604
 31
0
  0
LINE
  5
AC1
330
A02
100
AcDbEntity
  8
View
100
AcDbLine
 10
116.124
 20
15.1604
 30
0
 11
113.124
 21
15.1604
 31
0
  0
LINE
  5
AC2
330
A02
100
AcDbEntity
  8
View
100
AcDbLine
 10
126.124
 20
43.6604
 30
0
 11
126.124
 21
29.6604
 31
0
  0
LINE
  5
AC3
330
A02
100
AcDbEntity
  8
View
100
AcDbLine
 10
113.124
 20
15.1604
 30
0
 11
113.124
 21
16.6604
 31
0
  0
LINE
  5
AC4
330
A02
100
AcDbEntity
  8
View
100
AcDbLine
 10
126.124
 20
43.6604
 30
0
 11
124.624
 21
43.6604
 31
0
  0
LINE
  5
AC5
330
A02
100
AcDbEntity
  8
View
100
AcDbLine
 10
113.124
 20
16.6604
 30
0
 11
99.124
 21
16.6604
 31
0
  0
LINE
  5
AC6
330
A02
100
AcDbEntity
  8
View
100
AcDbLine
 10
124.624
 20
43.6604
 30
0
 11
124.624
 21
46.6604
 31
0
  0
LINE
  5
AC7
330
A02
100
AcDbEntity
  8
View
100
AcDbLine
 10
99.124
 20
16.6604
 30
0
 11
99.124
 21
15.1604
 31
0
  0
LINE
  5
AC8
330
A02
100
AcDbEntity
  8
View
100
AcDbLine
 10
124.624
 20
46.6604
 30
0
 11
126.124
 21
46.6604
 31
0
  0
LINE
  5
AC9
330
A02
100
AcDbEntity
  8
View
100
AcDbLine
 10
99.124
 20
15.1604
 30
0
 11
96.124
 21
15.1604
 31
0
  0
LINE
  5
ACA
330
A02
100
AcDbEntity
  8
View
100
AcDbLine
 10
126.124
 20
56.6604
 30
0
 11
126.124
 21
46.6604
 31
0
  0
LINE
  5
ACB
330
A02
100
AcDbEntity
  8
View
100
AcDbLine
 10
96.124
 20
15.1604
 30
0
 11
96.124
 21
16.6604
 31
0
  0
LINE
  5
ACC
330
A02
100
AcDbEntity
  8
View
100
AcDbLine
 10
119.053
 20
63.7315
 30
0
 11
126.124
 21
56.6604
 31
0
  0
LINE
  5
ACD
330
A02
100
AcDbEntity
  8
View
100
AcDbLine
 10
96.124
 20
16.6604
 30
0
 11
86.124
 21
16.6604
 31
0
  0
LINE
  5
ACE
330
A02
100
AcDbEntity
  8
View
100
AcDbLine
 10
119.053
 20
63.7315
 30
0
 11
120.114
 21
64.7921
 31
0
  0
LINE
  5
ACF
330
A02
100
AcDbEntity
  8
View
100
AcDbLine
 10
86.124
 20
16.6604
 30
0
 11
86.124
 21
26.6604
 31
0
  0
LINE
  5
AD0
330
A02
100
AcDbEntity
  8
View
100
AcDbLine
 10
120.114
 20
64.7921
 30
0
 11
117.992
 21
66.9135
 31
0
  0
LINE
  5
AD1
330
A02
100
AcDbEntity
  8
View
100
AcDbLine
 10
86.124
 20
26.6604
 30
0
 11
87.624
 21
26.6604
 31
0
  0
LINE
  5
AD2
330
A02
100
AcDbEntity
  8
View
100
AcDbLine
 10
117.992
 20
66.9135
 30
0
 11
116.932
 21
65.8528
 31
0
  0
LINE
  5
AD3
330
A02
100
AcDbEntity
  8
View
100
AcDbLine
 10
87.624
 20
26.6604
 30
0
 11
87.624
 21
29.6604
 31
0
  0
LINE
  5
AD4
330
A02
100
AcDbEntity
  8
View
100
AcDbLine
 10
106.124
 20
76.6604
 30
0
 11
116.932
 21
65.8528
 31
0
  0
LINE
  5
AD5
330
A02
100
AcDbEntity
  8
View
100
AcDbLine
 10
87.624
 20
29.6604
 30
0
 11
86.124
 21
29.6604
 31
0
  0
LINE
  5
AD6
330
A02
100
AcDbEntity
  8
View
100
AcDbLine
 10
95.3164
 20
65.8528
 30
0
 11
106.124
 21
76.6604
 31
0
  0
LINE
  5
AD7
330
A02
100
AcDbEntity
  8
View
100
AcDbLine
 10
86.124
 20
29.6604
 30
0
 11
86.124
 21
43.6604
 31
0
  0
LINE
  5
AD8
330
A02
100
AcDbEntity
  8
View
100
AcDbLine
 10
95.3164
 20
65.8528
 30
0
 11
94.2557
 21
66.9135
 31
0
  0
LINE
  5
AD9
330
A02
100
AcDbEntity
  8
View
100
AcDbLine
 10
86.124
 20
43.6604
 30
0
 11
87.624
 21
43.6604
 31
0
  0
LINE
  5
ADA
330
A02
100
AcDbEntity
  8
View
100
AcDbLine
 10
94.2557
 20
66.9135
 30
0
 11
92.1344
 21
64.7921
 31
0
  0
LINE
  5
ADB
330
A02
100
AcDbEntity
  8
View
100
AcDbLine
 10
87.624
 20
43.6604
 30
0
 11
87.624
 21
46.6604
 31
0
  0
LINE
  5
ADC
330
A02
100
AcDbEntity
  8
View
100
AcDbLine
 10
92.1344
 20
64.7921
 30
0
 11
93.1951
 21
63.7315
 31
0
  0
LINE
  5
ADD
330
A02
100
AcDbEntity
  8
View
100
AcDbLine
 10
87.624
 20
46.6604
 30
0
 11
86.124
 21
46.6604
 31
0
  0
LINE
  5
ADE
330
A02
100
AcDbEntity
  8
View
100
AcDbLine
 10
86.124
 20
56.6604
 30
0
 11
93.1951
 21
63.7315
 31
0
  0
LINE
  5
ADF
330
A02
100
AcDbEntity
  8
View
100
AcDbLine
 10
86.124
 20
46.6604
 30
0
 11
86.124
 21
56.6604
 31
0
  0
LINE
  5
AE0
330
A02
100
AcDbEntity
  8
View
100
AcDbLine
 10
106.124
 20
22.8699
 30
0
 11
108.404
 21
22.8699
 31
0
  0
LINE
  5
AE1
330
A02
100
AcDbEntity
  8
View
100
AcDbLine
 10
108.404
 20
22.8699
 30
0
 11
108.404
 21
30.8701
 31
0
  0
ARC
  5
AE2
330
A02
100
AcDbEntity
  8
View
100
AcDbCircle
 10
113.429
 20
33.3262
 30
0
 40
5.59294
100
AcDbArc
 50
-153.951
 51
-19.1287
  0
ARC
  5
AE3
330
A02
100
AcDbEntity
  8
View
100
AcDbCircle
 10
116.706
 20
36.7931
 30
0
 40
5.66699
100
AcDbArc
 50
-179.186
 51
-69.2575
  0
ARC
  5
AE4
330
A02
100
AcDbEntity
  8
View
100
AcDbCircle
 10
111.493
 20
41.1309
 30
0
 40
4.4415
100
AcDbArc
 50
-95.8646
 51
-35.8639
  0
ARC
  5
AE5
330
A02
100
AcDbEntity
  8
View
100
AcDbCircle
 10
115.676
 20
46.0858
 30
0
 40
7.57949
100
AcDbArc
 50
-167.676
 51
-94.417
  0
ARC
  5
AE6
330
A02
100
AcDbEntity
  8
View
100
AcDbCircle
 10
109.76
 20
47.1887
 30
0
 40
3.10145
100
AcDbArc
 50
-118.691
 51
-10.6468
  0
ARC
  5
AE7
330
A02
100
AcDbEntity
  8
View
100
AcDbCircle
 10
113.793
 20
54.3383
 30
0
 40
7.78518
100
AcDbArc
 50
-170.076
 51
-97.2637
  0
ARC
  5
AE8
330
A02
100
AcDbEntity
  8
View
100
AcDbCircle
 10
98.4553
 20
54.3383
 30
0
 40
7.78518
100
AcDbArc
 50
-82.7363
 51
-9.92373
  0
ARC
  5
AE9
330
A02
100
AcDbEntity
  8
View
100
AcDbCircle
 10
102.488
 20
47.1887
 30
0
 40
3.10145
100
AcDbArc
 50
-169.353
 51
-61.3087
  0
ARC
  5
AEA
330
A02
100
AcDbEntity
  8
View
100
AcDbCircle
 10
96.5719
 20
46.0858
 30
0
 40
7.57949
100
AcDbArc
 50
-85.583
 51
-12.324
  0
ARC
  5
AEB
330
A02
100
AcDbEntity
  8
View
100
AcDbCircle
 10
100.755
 20
41.1309
 30
0
 40
4.4415
100
AcDbArc
 50
-144.136
 51
-84.1354
  0
ARC
  5
AEC
330
A02
100
AcDbEntity
  8
View
100
AcDbCircle
 10
95.5424
 20
36.7931
 30
0
 40
5.66699
100
AcDbArc
 50
-110.742
 51
-0.813675
  0
ARC
  5
AED
330
A02
100
AcDbEntity
  8
View
100
AcDbCircle
 10
98.8195
 20
33.3262
 30
0
 40
5.59294
100
AcDbArc
 50
-160.871
 51
-26.0489
  0
LINE
  5
AEE
330
A02
100
AcDbEntity
  8
View
100
AcDbLine
 10
103.844
 20
22.8699
 30
0
 11
103.844
 21
30.8701
 31
0
  0
LINE
  5
AEF
330
A02
100
AcDbEntity
  8
View
100
AcDbLine
 10
106.124
 20
22.8699
 30
0
 11
103.844
 21
22.8699
 31
0
  0
ENDSEC
  0
SECTION
  2
OBJECTS
  0
DICTIONARY
  5
F000
330
0
100
AcDbDictionary
  3
ACAD_GROUP
350
F001
  0
DICTIONARY
  5
F001
330
F000
100
AcDbDictionary
  0
ENDSEC
  0
EOF